<mxfile host="app.diagrams.net" agent="Mozilla/5.0 (Windows NT 10.0; Win64; x64) AppleWebKit/537.36 (KHTML, like Gecko) Chrome/130.0.0.0 Safari/537.36" version="24.7.16">
  <diagram name="Страница — 1" id="DWB37v9pL2ZAt1SZBdt1">
    <mxGraphModel dx="1435" dy="1168" grid="1" gridSize="10" guides="1" tooltips="1" connect="1" arrows="1" fold="1" page="0" pageScale="1" pageWidth="100" pageHeight="1022" math="0" shadow="0">
      <root>
        <mxCell id="0" />
        <mxCell id="1" parent="0" />
        <mxCell id="uZ_XxfxW183BDdQzkKYe-20" value="" style="rounded=0;whiteSpace=wrap;html=1;sketch=1;hachureGap=4;jiggle=2;curveFitting=1;fontFamily=Architects Daughter;fontSource=https%3A%2F%2Ffonts.googleapis.com%2Fcss%3Ffamily%3DArchitects%2BDaughter;glass=0;shadow=0;fillColor=default;" parent="1" vertex="1">
          <mxGeometry x="-220" y="100" width="570" height="350" as="geometry" />
        </mxCell>
        <mxCell id="uZ_XxfxW183BDdQzkKYe-21" value="Backend app" style="text;html=1;align=center;verticalAlign=middle;whiteSpace=wrap;rounded=0;fontSize=35;fontFamily=Architects Daughter;fontSource=https%3A%2F%2Ffonts.googleapis.com%2Fcss%3Ffamily%3DArchitects%2BDaughter;" parent="1" vertex="1">
          <mxGeometry x="-164.29438356164383" y="139.99631578947378" width="63.287671232876704" height="37.26315789473684" as="geometry" />
        </mxCell>
        <mxCell id="uZ_XxfxW183BDdQzkKYe-4" value="&lt;span style=&quot;font-size: 24px;&quot;&gt;Aqua&lt;/span&gt;" style="ellipse;whiteSpace=wrap;html=1;sketch=1;hachureGap=4;jiggle=2;curveFitting=1;fontFamily=Architects Daughter;fontSource=https%3A%2F%2Ffonts.googleapis.com%2Fcss%3Ffamily%3DArchitects%2BDaughter;fillColor=#b1ddf0;strokeColor=#10739e;fillStyle=zigzag;fontStyle=0" parent="1" vertex="1">
          <mxGeometry x="-137.85999999999999" y="310" width="125.71" height="110" as="geometry" />
        </mxCell>
        <mxCell id="VcgHimuQjYJjr0YSwUA5-29" style="edgeStyle=none;curved=1;rounded=0;sketch=1;hachureGap=4;jiggle=2;curveFitting=1;orthogonalLoop=1;jettySize=auto;html=1;exitX=0;exitY=1;exitDx=0;exitDy=0;entryX=0.5;entryY=0;entryDx=0;entryDy=0;fontFamily=Architects Daughter;fontSource=https%3A%2F%2Ffonts.googleapis.com%2Fcss%3Ffamily%3DArchitects%2BDaughter;fontSize=12;startSize=8;endSize=8;" edge="1" parent="1" source="uZ_XxfxW183BDdQzkKYe-6" target="VcgHimuQjYJjr0YSwUA5-48">
          <mxGeometry relative="1" as="geometry">
            <mxPoint x="-76.00999999999999" y="293" as="targetPoint" />
          </mxGeometry>
        </mxCell>
        <mxCell id="VcgHimuQjYJjr0YSwUA5-30" style="edgeStyle=none;curved=1;rounded=0;sketch=1;hachureGap=4;jiggle=2;curveFitting=1;orthogonalLoop=1;jettySize=auto;html=1;exitX=1;exitY=1;exitDx=0;exitDy=0;entryX=0.5;entryY=0;entryDx=0;entryDy=0;fontFamily=Architects Daughter;fontSource=https%3A%2F%2Ffonts.googleapis.com%2Fcss%3Ffamily%3DArchitects%2BDaughter;fontSize=12;startSize=8;endSize=8;" edge="1" parent="1" source="uZ_XxfxW183BDdQzkKYe-6" target="VcgHimuQjYJjr0YSwUA5-50">
          <mxGeometry relative="1" as="geometry">
            <mxPoint x="201.76999999999998" y="293" as="targetPoint" />
          </mxGeometry>
        </mxCell>
        <mxCell id="uZ_XxfxW183BDdQzkKYe-6" value="&lt;span style=&quot;font-size: 20px;&quot;&gt;Entrypoint&lt;/span&gt;" style="ellipse;whiteSpace=wrap;html=1;sketch=1;hachureGap=4;jiggle=2;curveFitting=1;fontFamily=Architects Daughter;fontSource=https%3A%2F%2Ffonts.googleapis.com%2Fcss%3Ffamily%3DArchitects%2BDaughter;fontSize=20;fillColor=#008a00;strokeColor=#005700;fontColor=#000000;fillStyle=zigzag;" parent="1" vertex="1">
          <mxGeometry x="-0.6199999999999997" y="94.63" width="125.71" height="110" as="geometry" />
        </mxCell>
        <mxCell id="uZ_XxfxW183BDdQzkKYe-5" value="&lt;span style=&quot;font-size: 24px;&quot;&gt;Auth&lt;/span&gt;" style="ellipse;whiteSpace=wrap;html=1;sketch=1;hachureGap=4;jiggle=2;curveFitting=1;fontFamily=Architects Daughter;fontSource=https%3A%2F%2Ffonts.googleapis.com%2Fcss%3Ffamily%3DArchitects%2BDaughter;fillColor=#f5adad;strokeColor=#ae4132;fillStyle=zigzag;" parent="1" vertex="1">
          <mxGeometry x="138.92000000000002" y="310" width="125.71" height="110" as="geometry" />
        </mxCell>
        <mxCell id="VcgHimuQjYJjr0YSwUA5-6" value="Postgres" style="shape=cylinder3;whiteSpace=wrap;html=1;boundedLbl=1;backgroundOutline=1;size=6.741935483870918;sketch=1;hachureGap=4;jiggle=2;curveFitting=1;fontFamily=Architects Daughter;fontSource=https%3A%2F%2Ffonts.googleapis.com%2Fcss%3Ffamily%3DArchitects%2BDaughter;fontSize=18;" vertex="1" parent="1">
          <mxGeometry x="159.80999999999997" y="500" width="83.93" height="100" as="geometry" />
        </mxCell>
        <mxCell id="VcgHimuQjYJjr0YSwUA5-9" value="" style="rounded=0;whiteSpace=wrap;html=1;sketch=1;hachureGap=4;jiggle=2;curveFitting=1;fontFamily=Architects Daughter;fontSource=https%3A%2F%2Ffonts.googleapis.com%2Fcss%3Ffamily%3DArchitects%2BDaughter;" vertex="1" parent="1">
          <mxGeometry x="-220" y="490" width="290" height="180" as="geometry" />
        </mxCell>
        <mxCell id="VcgHimuQjYJjr0YSwUA5-8" value="MongoDB" style="shape=cylinder3;whiteSpace=wrap;html=1;boundedLbl=1;backgroundOutline=1;size=6.741935483870918;sketch=1;hachureGap=4;jiggle=2;curveFitting=1;fontFamily=Architects Daughter;fontSource=https%3A%2F%2Ffonts.googleapis.com%2Fcss%3Ffamily%3DArchitects%2BDaughter;fontSize=14;fontStyle=0" vertex="1" parent="1">
          <mxGeometry x="-201.01" y="510" width="70" height="80" as="geometry" />
        </mxCell>
        <mxCell id="VcgHimuQjYJjr0YSwUA5-12" value="" style="endArrow=none;dashed=1;html=1;dashPattern=1 3;strokeWidth=2;rounded=0;sketch=1;hachureGap=4;jiggle=2;curveFitting=1;fontFamily=Architects Daughter;fontSource=https%3A%2F%2Ffonts.googleapis.com%2Fcss%3Ffamily%3DArchitects%2BDaughter;fontSize=12;startSize=8;endSize=8;curved=1;exitX=0.5;exitY=1;exitDx=0;exitDy=0;exitPerimeter=0;entryX=0.5;entryY=1;entryDx=0;entryDy=0;entryPerimeter=0;" edge="1" parent="1" source="VcgHimuQjYJjr0YSwUA5-8" target="VcgHimuQjYJjr0YSwUA5-16">
          <mxGeometry width="50" height="50" relative="1" as="geometry">
            <mxPoint x="18.99" y="501" as="sourcePoint" />
            <mxPoint x="-111.01" y="711" as="targetPoint" />
            <Array as="points">
              <mxPoint x="-121.00999999999999" y="631" />
            </Array>
          </mxGeometry>
        </mxCell>
        <mxCell id="VcgHimuQjYJjr0YSwUA5-14" value="" style="endArrow=none;dashed=1;html=1;dashPattern=1 3;strokeWidth=2;rounded=0;sketch=1;hachureGap=4;jiggle=2;curveFitting=1;fontFamily=Architects Daughter;fontSource=https%3A%2F%2Ffonts.googleapis.com%2Fcss%3Ffamily%3DArchitects%2BDaughter;fontSize=12;startSize=8;endSize=8;curved=1;entryX=0.5;entryY=1;entryDx=0;entryDy=0;entryPerimeter=0;exitX=0.5;exitY=1;exitDx=0;exitDy=0;exitPerimeter=0;" edge="1" parent="1" source="VcgHimuQjYJjr0YSwUA5-17" target="VcgHimuQjYJjr0YSwUA5-16">
          <mxGeometry width="50" height="50" relative="1" as="geometry">
            <mxPoint x="18.99" y="701" as="sourcePoint" />
            <mxPoint x="70.95499999999991" y="591" as="targetPoint" />
            <Array as="points">
              <mxPoint x="-21.01" y="631" />
            </Array>
          </mxGeometry>
        </mxCell>
        <mxCell id="VcgHimuQjYJjr0YSwUA5-15" value="Replication" style="text;html=1;align=center;verticalAlign=middle;whiteSpace=wrap;rounded=0;fontSize=16;fontFamily=Architects Daughter;fontSource=https%3A%2F%2Ffonts.googleapis.com%2Fcss%3Ffamily%3DArchitects%2BDaughter;fontStyle=0" vertex="1" parent="1">
          <mxGeometry x="-101.01" y="610" width="60" height="30" as="geometry" />
        </mxCell>
        <mxCell id="VcgHimuQjYJjr0YSwUA5-16" value="MongoDB" style="shape=cylinder3;whiteSpace=wrap;html=1;boundedLbl=1;backgroundOutline=1;size=6.741935483870918;sketch=1;hachureGap=4;jiggle=2;curveFitting=1;fontFamily=Architects Daughter;fontSource=https%3A%2F%2Ffonts.googleapis.com%2Fcss%3Ffamily%3DArchitects%2BDaughter;fontSize=14;fontStyle=0" vertex="1" parent="1">
          <mxGeometry x="-111.01" y="510" width="70" height="80" as="geometry" />
        </mxCell>
        <mxCell id="VcgHimuQjYJjr0YSwUA5-17" value="MongoDB" style="shape=cylinder3;whiteSpace=wrap;html=1;boundedLbl=1;backgroundOutline=1;size=6.741935483870918;sketch=1;hachureGap=4;jiggle=2;curveFitting=1;fontFamily=Architects Daughter;fontSource=https%3A%2F%2Ffonts.googleapis.com%2Fcss%3Ffamily%3DArchitects%2BDaughter;fontSize=14;fontStyle=0" vertex="1" parent="1">
          <mxGeometry x="-19.01" y="510" width="70" height="80" as="geometry" />
        </mxCell>
        <mxCell id="VcgHimuQjYJjr0YSwUA5-18" value="&lt;span style=&quot;color: rgb(0, 0, 0); font-family: &amp;quot;Architects Daughter&amp;quot;; font-size: 14px; font-style: normal; font-variant-ligatures: normal; font-variant-caps: normal; font-weight: 400; letter-spacing: normal; orphans: 2; text-indent: 0px; text-transform: none; widows: 2; word-spacing: 0px; -webkit-text-stroke-width: 0px; white-space: normal; background-color: rgb(255, 255, 255); text-decoration-thickness: initial; text-decoration-style: initial; text-decoration-color: initial; float: none; display: inline !important;&quot;&gt;MongoDB cluster&lt;/span&gt;" style="text;whiteSpace=wrap;html=1;fontFamily=Architects Daughter;fontSource=https%3A%2F%2Ffonts.googleapis.com%2Fcss%3Ffamily%3DArchitects%2BDaughter;align=center;" vertex="1" parent="1">
          <mxGeometry x="-211.01" y="620" width="90" height="40" as="geometry" />
        </mxCell>
        <mxCell id="VcgHimuQjYJjr0YSwUA5-22" style="edgeStyle=none;curved=1;rounded=0;sketch=1;hachureGap=4;jiggle=2;curveFitting=1;orthogonalLoop=1;jettySize=auto;html=1;exitX=0.5;exitY=1;exitDx=0;exitDy=0;entryX=0.5;entryY=0;entryDx=0;entryDy=0;entryPerimeter=0;fontFamily=Architects Daughter;fontSource=https%3A%2F%2Ffonts.googleapis.com%2Fcss%3Ffamily%3DArchitects%2BDaughter;fontSize=12;startSize=8;endSize=8;" edge="1" parent="1" source="uZ_XxfxW183BDdQzkKYe-4" target="VcgHimuQjYJjr0YSwUA5-16">
          <mxGeometry relative="1" as="geometry">
            <mxPoint x="-85.00499999999965" y="699.9999999999998" as="sourcePoint" />
          </mxGeometry>
        </mxCell>
        <mxCell id="VcgHimuQjYJjr0YSwUA5-23" style="edgeStyle=none;curved=1;rounded=0;sketch=1;hachureGap=4;jiggle=2;curveFitting=1;orthogonalLoop=1;jettySize=auto;html=1;exitX=0;exitY=1;exitDx=0;exitDy=0;entryX=0.5;entryY=0;entryDx=0;entryDy=0;entryPerimeter=0;fontFamily=Architects Daughter;fontSource=https%3A%2F%2Ffonts.googleapis.com%2Fcss%3Ffamily%3DArchitects%2BDaughter;fontSize=12;startSize=8;endSize=8;" edge="1" parent="1" source="uZ_XxfxW183BDdQzkKYe-4" target="VcgHimuQjYJjr0YSwUA5-8">
          <mxGeometry relative="1" as="geometry" />
        </mxCell>
        <mxCell id="VcgHimuQjYJjr0YSwUA5-24" style="edgeStyle=none;curved=1;rounded=0;sketch=1;hachureGap=4;jiggle=2;curveFitting=1;orthogonalLoop=1;jettySize=auto;html=1;exitX=1;exitY=1;exitDx=0;exitDy=0;entryX=0.5;entryY=0;entryDx=0;entryDy=0;entryPerimeter=0;fontFamily=Architects Daughter;fontSource=https%3A%2F%2Ffonts.googleapis.com%2Fcss%3Ffamily%3DArchitects%2BDaughter;fontSize=12;startSize=8;endSize=8;" edge="1" parent="1" source="uZ_XxfxW183BDdQzkKYe-4" target="VcgHimuQjYJjr0YSwUA5-17">
          <mxGeometry relative="1" as="geometry" />
        </mxCell>
        <mxCell id="VcgHimuQjYJjr0YSwUA5-46" style="edgeStyle=none;curved=1;rounded=0;sketch=1;hachureGap=4;jiggle=2;curveFitting=1;orthogonalLoop=1;jettySize=auto;html=1;exitX=0.55;exitY=0.95;exitDx=0;exitDy=0;exitPerimeter=0;entryX=0.5;entryY=0;entryDx=0;entryDy=0;fontFamily=Architects Daughter;fontSource=https%3A%2F%2Ffonts.googleapis.com%2Fcss%3Ffamily%3DArchitects%2BDaughter;fontSize=12;startSize=8;endSize=8;" edge="1" parent="1" source="VcgHimuQjYJjr0YSwUA5-45" target="VcgHimuQjYJjr0YSwUA5-49">
          <mxGeometry relative="1" as="geometry">
            <mxPoint x="62.86000000000013" y="80" as="targetPoint" />
          </mxGeometry>
        </mxCell>
        <mxCell id="VcgHimuQjYJjr0YSwUA5-45" value="&lt;span style=&quot;font-size: 35px;&quot;&gt;Frontend&lt;/span&gt;&lt;div&gt;&lt;span style=&quot;font-size: 35px;&quot;&gt;app&lt;/span&gt;&lt;/div&gt;" style="ellipse;shape=cloud;whiteSpace=wrap;html=1;sketch=1;hachureGap=4;jiggle=2;curveFitting=1;fontFamily=Architects Daughter;fontSource=https%3A%2F%2Ffonts.googleapis.com%2Fcss%3Ffamily%3DArchitects%2BDaughter;" vertex="1" parent="1">
          <mxGeometry x="-80.00000000000001" y="-130" width="259.01" height="160" as="geometry" />
        </mxCell>
        <mxCell id="VcgHimuQjYJjr0YSwUA5-47" style="edgeStyle=none;curved=1;rounded=0;sketch=1;hachureGap=4;jiggle=2;curveFitting=1;orthogonalLoop=1;jettySize=auto;html=1;exitX=0.5;exitY=1;exitDx=0;exitDy=0;entryX=0.5;entryY=0;entryDx=0;entryDy=0;entryPerimeter=0;fontFamily=Architects Daughter;fontSource=https%3A%2F%2Ffonts.googleapis.com%2Fcss%3Ffamily%3DArchitects%2BDaughter;fontSize=12;startSize=8;endSize=8;" edge="1" parent="1" source="uZ_XxfxW183BDdQzkKYe-5" target="VcgHimuQjYJjr0YSwUA5-6">
          <mxGeometry relative="1" as="geometry" />
        </mxCell>
        <mxCell id="VcgHimuQjYJjr0YSwUA5-48" value="&lt;span style=&quot;font-size: 16px;&quot;&gt;Facade&lt;/span&gt;" style="rounded=0;whiteSpace=wrap;html=1;sketch=1;hachureGap=4;jiggle=2;curveFitting=1;fontFamily=Architects Daughter;fontSource=https%3A%2F%2Ffonts.googleapis.com%2Fcss%3Ffamily%3DArchitects%2BDaughter;fontSize=16;" vertex="1" parent="1">
          <mxGeometry x="-111.00999999999999" y="298" width="70" height="30" as="geometry" />
        </mxCell>
        <mxCell id="VcgHimuQjYJjr0YSwUA5-49" value="&lt;span style=&quot;font-size: 16px;&quot;&gt;HTTP API&lt;/span&gt;" style="rounded=0;whiteSpace=wrap;html=1;sketch=1;hachureGap=4;jiggle=2;curveFitting=1;fontFamily=Architects Daughter;fontSource=https%3A%2F%2Ffonts.googleapis.com%2Fcss%3Ffamily%3DArchitects%2BDaughter;fontSize=16;" vertex="1" parent="1">
          <mxGeometry x="20.860000000000003" y="84.63" width="82.76" height="30" as="geometry" />
        </mxCell>
        <mxCell id="VcgHimuQjYJjr0YSwUA5-50" value="&lt;span style=&quot;font-size: 16px;&quot;&gt;Facade&lt;/span&gt;" style="rounded=0;whiteSpace=wrap;html=1;sketch=1;hachureGap=4;jiggle=2;curveFitting=1;fontFamily=Architects Daughter;fontSource=https%3A%2F%2Ffonts.googleapis.com%2Fcss%3Ffamily%3DArchitects%2BDaughter;fontSize=16;" vertex="1" parent="1">
          <mxGeometry x="166.76999999999998" y="298" width="70" height="30" as="geometry" />
        </mxCell>
      </root>
    </mxGraphModel>
  </diagram>
</mxfile>
